# xmcd
#
# Track frame offsets: 
#        150
#        16820
#        32630
#        50317
#        69828
#        83373
#        102120
#        121674
#        137237
#        153608
#        171025
#
# Disc length: 2444 seconds
#
# Revision: 0
# Processed by: cddbd v1.5.2PL0 Copyright (c) Steve Scherf et al.
# Submitted via: ExactAudioCopy v1.3
#
DISCID=78098a0b
DTITLE=Johnny Neel - Gun Metal Blue
DYEAR=2004
DGENRE=Rockin' Blues
TTITLE0=Cross My Mind
TTITLE1=Sure As The Day Is Long
TTITLE2=Not This Time
TTITLE3=I found It
TTITLE4=You Wouldn't Know It Now
TTITLE5=Love Ain't A Bad Place
TTITLE6=Carolina
TTITLE7=My Little Feel Good
TTITLE8=Gun Metal Blue
TTITLE9=Strange Way
TTITLE10=It's My Turn
EXTD=
EXTT0=
EXTT1=
EXTT2=
EXTT3=
EXTT4=
EXTT5=
EXTT6=
EXTT7=
EXTT8=
EXTT9=
EXTT10=
PLAYORDER=
